<svg id="svg" version="1.1" xmlns="http://www.w3.org/2000/svg" xmlns:xlink="http://www.w3.org/1999/xlink" width="400" height="97.33990147783251" viewBox="0, 0, 400,97.33990147783251"><g id="svgg"><path id="path0" d="M0.000 3.417 L 0.000 5.167 6.250 5.167 L 12.500 5.167 12.500 48.833 L 12.500 92.500 6.250 92.500 L 0.000 92.500 0.000 94.333 L 0.000 96.167 39.563 96.167 L 79.125 96.167 79.150 94.885 C 79.164 94.180,79.210 93.568,79.253 93.525 C 79.295 93.482,79.237 93.332,79.124 93.192 C 79.010 93.051,78.992 92.981,79.085 93.036 C 79.190 93.099,79.261 92.752,79.273 92.110 C 79.288 91.308,79.467 88.083,79.496 88.083 C 79.500 88.083,79.546 86.471,79.598 84.500 C 79.718 79.986,79.736 79.620,79.847 79.417 C 79.979 79.176,79.902 77.580,79.747 77.328 C 79.659 77.186,79.682 77.156,79.815 77.239 C 79.959 77.328,80.007 77.183,79.986 76.723 C 79.942 75.784,80.180 69.432,80.261 69.350 C 80.299 69.312,80.247 69.180,80.145 69.057 C 80.008 68.892,80.009 68.833,80.146 68.833 C 80.249 68.833,80.333 68.716,80.333 68.573 C 80.333 68.427,80.253 68.363,80.150 68.427 C 80.019 68.508,80.016 68.449,80.137 68.222 C 80.230 68.048,80.327 67.420,80.351 66.827 L 80.396 65.750 78.197 65.667 L 75.999 65.583 75.980 66.000 C 75.969 66.229,75.970 66.476,75.983 66.548 C 75.995 66.621,75.933 66.814,75.846 66.977 C 75.758 67.140,75.599 67.943,75.492 68.762 C 75.384 69.580,75.211 70.358,75.106 70.490 C 74.954 70.683,74.966 70.702,75.167 70.583 C 75.374 70.461,75.382 70.479,75.210 70.692 C 75.096 70.832,75.052 70.997,75.113 71.057 C 75.173 71.117,75.147 71.167,75.056 71.167 C 74.964 71.167,74.882 71.260,74.874 71.375 C 74.856 71.637,74.771 71.994,74.425 73.250 C 74.274 73.800,74.109 74.475,74.059 74.750 C 74.008 75.025,73.893 75.296,73.803 75.352 C 73.712 75.408,73.645 75.502,73.652 75.560 C 73.660 75.619,73.660 75.685,73.653 75.708 C 73.645 75.731,73.603 75.975,73.559 76.250 C 73.515 76.525,73.409 76.775,73.322 76.806 C 73.235 76.837,73.209 76.934,73.263 77.022 C 73.318 77.109,73.271 77.290,73.161 77.424 C 73.006 77.611,73.005 77.667,73.158 77.667 C 73.286 77.667,73.263 77.761,73.095 77.929 C 72.951 78.073,72.833 78.299,72.833 78.431 C 72.833 78.563,72.763 78.801,72.678 78.961 C 72.017 80.189,71.193 82.074,71.265 82.191 C 71.313 82.269,71.278 82.333,71.187 82.333 C 71.096 82.333,70.817 82.708,70.567 83.167 C 70.318 83.625,70.051 84.000,69.974 84.000 C 69.896 84.000,69.833 84.112,69.833 84.250 C 69.833 84.387,69.758 84.500,69.667 84.500 C 69.575 84.500,69.500 84.580,69.500 84.678 C 69.500 84.776,69.238 85.132,68.917 85.469 C 68.579 85.825,68.373 86.186,68.426 86.328 C 68.476 86.463,68.464 86.520,68.399 86.455 C 68.334 86.390,67.932 86.655,67.505 87.043 C 66.249 88.187,65.335 88.892,64.603 89.284 C 64.225 89.486,63.842 89.711,63.750 89.784 C 63.658 89.857,62.983 90.175,62.250 90.490 C 61.517 90.806,60.879 91.106,60.833 91.157 C 60.788 91.208,60.600 91.265,60.417 91.283 C 60.063 91.319,59.445 91.452,59.375 91.508 C 59.298 91.570,59.087 91.613,58.197 91.746 C 57.710 91.819,57.210 91.981,57.086 92.105 C 56.962 92.229,56.835 92.259,56.805 92.172 C 56.771 92.075,56.169 92.102,55.250 92.242 C 54.100 92.417,51.079 92.475,42.291 92.489 L 30.832 92.509 30.874 71.004 C 30.899 58.602,30.979 49.506,31.065 49.514 C 31.146 49.522,31.276 49.428,31.354 49.306 C 31.461 49.137,31.496 49.134,31.497 49.293 C 31.500 49.495,32.353 49.477,33.917 49.242 C 34.296 49.185,34.356 49.209,34.167 49.338 C 33.974 49.470,34.031 49.499,34.417 49.463 C 34.692 49.438,34.972 49.342,35.039 49.250 C 35.113 49.149,35.163 49.173,35.164 49.309 C 35.166 49.442,35.271 49.496,35.417 49.440 C 35.554 49.387,35.667 49.398,35.667 49.464 C 35.667 49.529,36.098 49.587,36.625 49.591 C 37.446 49.598,39.161 49.758,40.000 49.906 C 41.132 50.106,41.617 50.237,41.824 50.397 C 42.016 50.546,42.035 50.533,41.917 50.333 C 41.798 50.133,41.817 50.121,42.010 50.272 C 42.142 50.376,42.502 50.516,42.811 50.581 C 43.424 50.713,45.410 51.714,45.875 52.126 C 46.035 52.269,46.167 52.323,46.167 52.246 C 46.167 51.696,48.719 54.855,49.439 56.296 C 49.885 57.188,50.306 57.942,50.376 57.973 C 50.445 58.003,50.460 58.097,50.408 58.181 C 50.356 58.265,50.398 58.333,50.500 58.333 C 50.602 58.333,50.646 58.399,50.596 58.479 C 50.546 58.560,50.608 58.991,50.734 59.438 C 50.859 59.884,51.056 60.719,51.170 61.292 C 51.285 61.865,51.427 62.333,51.486 62.333 C 51.545 62.333,51.600 62.577,51.607 62.875 C 51.636 63.961,51.669 64.185,51.792 64.111 C 51.860 64.070,51.941 64.722,51.970 65.560 C 52.000 66.398,52.047 67.233,52.074 67.417 C 52.102 67.600,52.134 67.825,52.145 67.917 C 52.158 68.020,52.944 68.069,54.208 68.046 L 56.250 68.009 56.250 48.234 L 56.250 28.460 54.255 28.489 C 53.157 28.505,52.246 28.533,52.230 28.551 C 52.078 28.722,52.075 29.834,52.227 29.836 C 52.367 29.838,52.368 29.870,52.228 29.961 C 52.125 30.028,51.987 30.608,51.923 31.250 C 51.858 31.892,51.743 32.753,51.667 33.164 C 51.591 33.575,51.561 33.964,51.600 34.027 C 51.640 34.091,51.596 34.191,51.503 34.248 C 51.410 34.306,51.334 34.480,51.334 34.635 C 51.335 35.255,50.616 37.322,50.435 37.219 C 50.333 37.161,50.303 37.172,50.368 37.244 C 50.434 37.317,50.378 37.637,50.244 37.956 C 50.111 38.274,50.051 38.621,50.111 38.726 C 50.171 38.831,50.161 38.863,50.088 38.797 C 49.944 38.667,49.333 39.357,49.333 39.651 C 49.333 39.751,49.258 39.833,49.167 39.833 C 49.075 39.833,49.000 39.914,49.000 40.012 C 49.000 40.110,48.906 40.284,48.792 40.399 C 48.677 40.514,48.396 40.846,48.167 41.136 C 47.938 41.426,47.652 41.664,47.532 41.665 C 47.412 41.666,47.360 41.742,47.417 41.833 C 47.473 41.925,47.457 42.000,47.380 42.000 C 47.304 42.000,46.980 42.227,46.662 42.504 C 45.748 43.299,45.595 43.419,45.546 43.375 C 45.398 43.241,45.167 43.365,45.266 43.526 C 45.337 43.641,45.312 43.673,45.204 43.606 C 45.048 43.510,43.908 43.925,43.667 44.167 C 43.583 44.250,43.404 44.298,42.869 44.382 C 42.712 44.406,42.490 44.485,42.375 44.556 C 42.260 44.628,42.167 44.646,42.167 44.597 C 42.167 44.548,41.960 44.588,41.708 44.686 C 41.456 44.783,41.137 44.885,41.000 44.911 C 40.720 44.965,37.934 45.360,37.417 45.419 C 37.233 45.440,37.083 45.472,37.083 45.489 C 37.083 45.506,35.677 45.561,33.958 45.611 L 30.833 45.701 30.833 25.420 L 30.833 5.138 40.156 5.185 C 45.284 5.210,49.448 5.282,49.410 5.345 C 49.371 5.407,49.957 5.465,50.711 5.472 C 51.466 5.480,52.458 5.529,52.917 5.581 C 53.375 5.633,54.050 5.708,54.417 5.746 C 55.200 5.828,55.522 5.893,55.750 6.015 C 55.842 6.064,56.104 6.090,56.333 6.072 C 56.563 6.055,56.938 6.115,57.167 6.205 C 57.943 6.512,59.527 6.837,59.706 6.726 C 59.804 6.665,59.839 6.689,59.784 6.779 C 59.707 6.903,61.663 7.960,62.167 8.068 C 62.363 8.109,63.593 8.914,63.699 9.070 C 63.763 9.164,63.869 9.187,63.934 9.121 C 64.000 9.056,64.159 9.153,64.288 9.337 C 64.417 9.521,64.593 9.629,64.678 9.576 C 64.763 9.524,64.833 9.568,64.833 9.675 C 64.833 9.782,65.283 10.303,65.833 10.833 C 66.383 11.363,66.833 11.884,66.833 11.992 C 66.833 12.099,66.908 12.140,67.000 12.083 C 67.092 12.027,67.167 12.041,67.167 12.115 C 67.167 12.189,67.358 12.472,67.592 12.744 C 67.826 13.016,68.170 13.485,68.356 13.787 C 68.543 14.089,68.763 14.294,68.846 14.242 C 68.928 14.191,68.955 14.256,68.905 14.387 C 68.855 14.517,68.925 14.735,69.061 14.870 C 69.196 15.006,69.332 15.259,69.362 15.433 C 69.392 15.608,69.466 15.787,69.525 15.833 C 69.799 16.043,70.837 18.360,70.732 18.528 C 70.664 18.639,70.689 18.673,70.791 18.609 C 70.979 18.493,71.387 19.444,71.247 19.672 C 71.202 19.745,71.251 19.834,71.358 19.869 C 71.464 19.905,71.562 20.081,71.575 20.261 C 71.588 20.442,71.649 20.670,71.710 20.769 C 71.899 21.074,72.662 23.566,72.665 23.885 C 72.666 24.051,72.723 24.152,72.792 24.109 C 72.860 24.067,72.939 24.378,72.967 24.802 C 72.995 25.225,73.097 25.667,73.194 25.783 C 73.291 25.900,73.327 26.109,73.274 26.248 C 73.221 26.387,73.254 26.500,73.348 26.500 C 73.443 26.500,73.483 26.560,73.438 26.633 C 73.198 27.021,73.694 27.149,75.530 27.177 C 77.815 27.210,77.766 27.230,77.718 26.306 C 77.698 25.908,77.643 24.908,77.596 24.083 C 77.550 23.258,77.472 21.021,77.424 19.111 C 77.375 17.201,77.293 15.569,77.241 15.486 C 77.189 15.402,77.231 15.333,77.333 15.333 C 77.436 15.333,77.468 15.249,77.404 15.147 C 77.341 15.044,77.257 14.088,77.219 13.022 C 77.137 10.758,77.059 9.417,77.010 9.417 C 76.990 9.417,76.949 9.285,76.919 9.124 C 76.888 8.963,76.917 8.865,76.984 8.907 C 77.051 8.948,77.101 8.273,77.095 7.407 C 77.090 6.542,77.047 5.833,77.001 5.833 C 76.955 5.833,76.921 5.027,76.926 4.042 C 76.931 3.056,76.903 2.119,76.865 1.958 C 76.798 1.682,74.828 1.667,38.397 1.667 L 0.000 1.667 0.000 3.417 M91.741 1.881 C 91.693 2.006,91.675 2.799,91.702 3.643 L 91.750 5.178 98.667 5.214 L 105.583 5.250 105.625 48.875 L 105.667 92.500 98.667 92.500 L 91.667 92.500 91.667 94.153 C 91.667 95.062,91.705 95.906,91.752 96.028 C 91.872 96.341,140.500 96.299,140.500 95.986 C 140.500 95.933,140.594 95.887,140.708 95.884 C 141.635 95.863,144.244 95.639,144.353 95.571 C 144.428 95.525,144.848 95.451,145.287 95.408 C 147.163 95.222,148.199 95.037,148.330 94.865 C 148.378 94.802,148.642 94.753,148.917 94.758 C 149.192 94.762,149.904 94.630,150.500 94.465 C 151.096 94.299,151.790 94.118,152.042 94.061 C 152.294 94.005,152.500 93.911,152.500 93.854 C 152.500 93.797,152.669 93.740,152.875 93.728 C 153.424 93.695,154.172 93.509,154.537 93.314 C 154.712 93.220,154.981 93.119,155.136 93.088 C 155.651 92.987,156.914 92.455,157.083 92.268 C 157.175 92.166,157.362 92.074,157.500 92.062 C 157.881 92.028,158.241 91.927,158.333 91.826 C 158.379 91.777,158.904 91.498,159.500 91.208 C 160.996 90.479,162.163 89.805,162.527 89.458 C 162.695 89.298,162.946 89.167,163.083 89.167 C 163.221 89.167,163.333 89.087,163.333 88.990 C 163.333 88.893,163.399 88.854,163.479 88.904 C 163.559 88.953,163.764 88.808,163.935 88.580 C 164.106 88.353,164.317 88.167,164.404 88.167 C 164.555 88.167,166.107 87.003,167.000 86.222 C 168.038 85.313,168.226 85.167,168.359 85.167 C 168.436 85.167,168.500 85.050,168.500 84.907 C 168.500 84.751,168.578 84.695,168.695 84.768 C 168.827 84.849,168.855 84.796,168.780 84.602 C 168.720 84.445,168.732 84.354,168.807 84.400 C 168.982 84.509,170.353 83.189,171.392 81.911 C 171.836 81.364,172.305 80.857,172.433 80.783 C 172.562 80.710,172.667 80.541,172.667 80.408 C 172.667 80.275,172.750 80.167,172.851 80.167 C 172.953 80.167,172.993 80.055,172.940 79.919 C 172.888 79.782,172.925 79.689,173.022 79.710 C 173.118 79.732,173.284 79.600,173.391 79.417 C 173.497 79.233,173.626 79.046,173.678 79.000 C 173.730 78.954,174.025 78.542,174.333 78.083 C 174.642 77.625,174.944 77.212,175.003 77.167 C 175.063 77.121,175.331 76.720,175.598 76.277 C 175.865 75.833,176.229 75.233,176.406 74.943 C 177.258 73.556,178.470 70.946,178.379 70.694 C 178.325 70.542,178.343 70.474,178.420 70.543 C 178.567 70.677,179.542 68.762,179.546 68.333 C 179.547 68.196,179.676 67.896,179.833 67.667 C 179.990 67.438,180.104 67.081,180.087 66.875 C 180.070 66.669,180.103 66.500,180.160 66.500 C 180.272 66.500,180.803 65.001,180.917 64.358 C 180.956 64.142,181.049 63.880,181.125 63.775 C 181.201 63.669,181.286 63.358,181.315 63.083 C 181.344 62.808,181.436 62.541,181.520 62.489 C 181.651 62.407,181.746 61.869,181.885 60.417 C 181.902 60.233,181.973 60.042,182.041 59.991 C 182.109 59.940,182.184 59.515,182.208 59.047 C 182.231 58.580,182.287 58.199,182.333 58.202 C 182.599 58.216,182.629 58.117,182.499 57.663 C 182.411 57.355,182.415 57.198,182.511 57.257 C 182.596 57.310,182.667 57.124,182.667 56.843 C 182.667 56.563,182.670 56.315,182.675 56.292 C 182.679 56.269,182.746 55.969,182.824 55.625 C 182.915 55.220,182.905 55.000,182.795 55.000 C 182.695 55.000,182.707 54.902,182.826 54.759 C 183.071 54.464,183.293 50.846,183.236 48.083 C 183.155 44.165,182.998 42.579,182.310 38.750 C 182.093 37.539,182.033 37.250,182.000 37.250 C 181.987 37.250,181.944 37.063,181.905 36.833 C 181.867 36.604,181.783 36.229,181.719 36.000 C 181.655 35.771,181.592 35.471,181.578 35.333 C 181.524 34.763,181.285 34.010,181.180 34.075 C 181.118 34.114,181.062 33.981,181.056 33.781 C 181.031 32.959,180.709 31.833,180.498 31.833 C 180.418 31.833,180.381 31.683,180.417 31.500 C 180.452 31.317,180.426 31.167,180.358 31.167 C 180.291 31.167,180.146 30.829,180.035 30.417 C 179.925 30.004,179.755 29.667,179.657 29.667 C 179.560 29.667,179.523 29.598,179.575 29.514 C 179.627 29.430,179.581 29.149,179.473 28.889 C 179.366 28.629,179.272 28.376,179.264 28.327 C 179.224 28.071,177.788 25.333,177.694 25.333 C 177.633 25.333,177.573 25.151,177.560 24.929 C 177.547 24.707,177.385 24.363,177.200 24.164 C 177.015 23.965,176.688 23.453,176.473 23.026 C 176.259 22.599,176.020 22.204,175.943 22.148 C 175.787 22.033,175.439 21.452,175.174 20.865 C 175.071 20.637,174.922 20.528,174.808 20.599 C 174.699 20.667,174.660 20.646,174.718 20.551 C 174.775 20.459,174.656 20.205,174.453 19.987 C 174.249 19.768,174.102 19.532,174.125 19.462 C 174.148 19.391,174.097 19.333,174.011 19.333 C 173.926 19.333,173.813 19.202,173.760 19.042 C 173.615 18.602,172.731 17.658,172.593 17.796 C 172.527 17.862,172.496 17.842,172.525 17.750 C 172.599 17.517,171.812 16.494,171.640 16.600 C 171.563 16.647,171.500 16.603,171.500 16.500 C 171.500 16.398,171.258 16.094,170.963 15.824 C 170.667 15.554,170.479 15.333,170.544 15.333 C 170.609 15.333,170.314 14.996,169.890 14.583 C 169.466 14.171,169.012 13.833,168.883 13.833 C 168.753 13.833,168.684 13.773,168.730 13.699 C 168.819 13.555,168.476 13.212,166.984 11.956 C 166.471 11.524,166.003 11.220,165.943 11.280 C 165.882 11.340,165.833 11.311,165.833 11.217 C 165.833 11.060,164.923 10.291,163.997 9.667 C 163.793 9.529,163.531 9.326,163.416 9.216 C 163.301 9.106,163.160 9.062,163.103 9.119 C 163.046 9.176,163.000 9.127,163.000 9.010 C 163.000 8.887,162.892 8.839,162.741 8.897 C 162.599 8.952,162.525 8.928,162.576 8.846 C 162.627 8.763,162.387 8.524,162.043 8.315 C 161.698 8.105,161.362 7.855,161.294 7.759 C 161.217 7.649,161.171 7.673,161.169 7.824 C 161.167 8.022,161.131 8.019,160.958 7.804 C 160.844 7.660,160.340 7.327,159.839 7.063 C 159.338 6.799,158.826 6.490,158.702 6.375 C 158.578 6.260,158.394 6.167,158.293 6.167 C 158.192 6.167,157.960 6.035,157.776 5.875 C 157.579 5.703,157.499 5.679,157.580 5.817 C 157.724 6.061,157.501 5.977,157.025 5.606 C 156.792 5.425,156.454 5.322,155.971 5.284 C 155.817 5.272,155.720 5.215,155.755 5.159 C 155.873 4.968,152.605 3.784,152.434 3.955 C 152.383 4.006,152.235 3.959,152.104 3.850 C 151.973 3.742,151.529 3.638,151.116 3.618 C 150.640 3.596,150.415 3.522,150.501 3.417 C 150.587 3.311,150.388 3.239,149.960 3.219 C 149.587 3.202,149.238 3.124,149.183 3.047 C 149.128 2.969,148.971 2.911,148.833 2.917 C 148.696 2.923,148.151 2.841,147.622 2.734 C 146.998 2.608,146.626 2.598,146.560 2.705 C 146.494 2.811,146.421 2.808,146.352 2.697 C 146.254 2.538,145.495 2.380,144.250 2.260 C 143.975 2.234,143.412 2.162,143.000 2.100 C 141.064 1.812,138.037 1.769,115.706 1.713 C 95.645 1.663,91.814 1.690,91.741 1.881 M194.917 3.417 L 194.917 5.167 202.000 5.167 L 209.083 5.167 209.083 48.833 L 209.083 92.500 202.042 92.500 C 198.169 92.500,194.998 92.556,194.995 92.625 C 194.992 92.694,194.982 93.520,194.972 94.460 L 194.954 96.171 235.256 96.168 C 257.422 96.166,275.592 96.130,275.635 96.088 C 275.677 96.045,275.738 95.164,275.771 94.130 C 275.870 90.993,276.001 87.793,276.063 87.000 C 276.095 86.587,276.054 86.119,275.971 85.958 C 275.873 85.767,275.884 85.667,276.004 85.667 C 276.104 85.667,276.141 85.593,276.085 85.503 C 276.030 85.414,276.066 85.189,276.165 85.003 C 276.289 84.772,276.290 84.667,276.170 84.667 C 276.072 84.667,276.029 84.466,276.071 84.208 C 276.113 83.956,276.197 82.325,276.258 80.583 C 276.318 78.842,276.444 77.323,276.538 77.208 C 276.631 77.094,276.639 77.000,276.556 77.000 C 276.471 77.000,276.447 76.559,276.500 76.000 C 276.553 75.450,276.532 75.000,276.455 75.000 C 276.377 75.000,276.355 74.933,276.406 74.850 C 276.579 74.571,276.651 73.428,276.743 69.542 L 276.835 65.667 274.667 65.667 C 273.253 65.667,272.500 65.728,272.500 65.843 C 272.500 65.940,272.594 65.963,272.708 65.895 C 272.873 65.796,272.874 65.822,272.714 66.020 C 272.603 66.157,272.471 66.596,272.421 66.995 C 272.371 67.394,272.251 67.815,272.155 67.931 C 272.058 68.047,271.996 68.241,272.017 68.363 C 272.038 68.484,272.005 68.771,271.946 69.000 C 271.886 69.229,271.802 69.604,271.760 69.833 C 271.718 70.063,271.639 70.438,271.585 70.667 C 271.530 70.896,271.406 71.515,271.308 72.042 C 271.211 72.569,271.083 73.000,271.024 73.000 C 270.965 73.000,270.901 73.169,270.881 73.375 C 270.843 73.773,270.710 74.417,270.666 74.417 C 270.651 74.417,270.605 74.642,270.563 74.917 C 270.521 75.192,270.377 75.653,270.243 75.942 C 270.110 76.231,270.000 76.550,270.000 76.652 C 270.000 76.754,269.935 76.968,269.855 77.127 C 269.703 77.430,268.781 79.692,268.430 80.627 C 268.317 80.925,268.181 81.126,268.128 81.072 C 268.049 80.993,267.877 81.335,267.744 81.833 C 267.623 82.289,267.306 82.833,267.161 82.833 C 267.062 82.833,267.021 82.899,267.071 82.980 C 267.121 83.061,266.942 83.404,266.673 83.742 C 266.404 84.081,266.087 84.577,265.968 84.845 C 265.849 85.114,265.653 85.333,265.533 85.333 C 265.412 85.333,265.356 85.401,265.407 85.485 C 265.459 85.568,265.274 85.827,264.998 86.060 C 264.721 86.293,264.514 86.577,264.539 86.692 C 264.563 86.807,264.502 86.905,264.402 86.909 C 264.302 86.913,263.853 87.235,263.405 87.625 C 262.957 88.015,262.528 88.333,262.452 88.333 C 262.376 88.333,262.350 88.393,262.395 88.465 C 262.440 88.538,262.342 88.608,262.177 88.620 C 262.011 88.633,261.670 88.834,261.417 89.068 C 261.165 89.302,260.892 89.453,260.812 89.404 C 260.732 89.354,260.667 89.381,260.667 89.464 C 260.667 89.708,257.470 91.124,257.125 91.033 C 257.056 91.015,257.000 91.088,257.000 91.194 C 257.000 91.301,256.957 91.346,256.904 91.293 C 256.851 91.240,256.570 91.269,256.279 91.358 C 255.125 91.708,253.253 92.077,252.282 92.145 C 252.104 92.158,252.028 92.243,252.096 92.354 C 252.178 92.487,252.129 92.495,251.927 92.383 C 251.763 92.291,251.313 92.278,250.863 92.352 C 250.434 92.422,244.965 92.485,238.710 92.490 L 227.336 92.500 227.293 70.850 C 227.255 51.652,227.278 49.213,227.500 49.323 C 227.809 49.475,230.742 49.409,231.009 49.244 C 231.116 49.178,231.255 49.207,231.318 49.308 C 231.465 49.546,234.166 49.651,234.169 49.419 C 234.171 49.309,234.215 49.311,234.294 49.424 C 234.362 49.520,235.017 49.697,235.750 49.817 C 238.561 50.278,239.288 50.492,241.292 51.451 C 241.956 51.769,242.500 52.097,242.500 52.181 C 242.500 52.265,242.617 52.333,242.760 52.333 C 242.903 52.333,242.973 52.408,242.917 52.500 C 242.860 52.592,242.901 52.667,243.009 52.667 C 243.507 52.667,246.000 55.735,246.000 56.349 C 246.000 56.511,246.097 56.742,246.215 56.863 C 246.457 57.110,246.793 57.911,246.868 58.417 C 246.895 58.600,246.982 58.798,247.063 58.856 C 247.143 58.914,247.208 59.157,247.208 59.395 C 247.208 59.653,247.278 59.784,247.382 59.720 C 247.488 59.655,247.517 59.715,247.456 59.873 C 247.401 60.017,247.453 60.267,247.572 60.429 C 247.690 60.591,247.752 60.860,247.708 61.026 C 247.665 61.192,247.685 61.461,247.754 61.623 C 247.823 61.784,247.895 62.029,247.913 62.167 C 247.932 62.304,248.003 62.736,248.072 63.125 C 248.254 64.165,248.311 64.582,248.508 66.329 C 248.725 68.247,248.432 68.028,250.821 68.058 L 252.831 68.083 252.874 48.292 C 252.902 35.184,252.860 28.497,252.750 28.491 C 252.341 28.467,248.756 28.522,248.726 28.552 C 248.707 28.571,248.648 29.223,248.595 30.001 C 248.541 30.780,248.422 31.792,248.329 32.250 C 248.236 32.708,248.175 33.196,248.192 33.333 C 248.209 33.471,248.122 33.921,247.998 34.333 C 247.875 34.746,247.763 35.121,247.751 35.167 C 247.068 37.713,245.720 40.185,244.251 41.583 C 243.557 42.244,243.000 42.685,243.000 42.573 C 243.000 42.523,242.824 42.673,242.608 42.905 C 242.393 43.138,242.168 43.279,242.108 43.220 C 242.049 43.160,242.000 43.211,242.000 43.333 C 242.000 43.456,241.953 43.509,241.897 43.452 C 241.840 43.395,241.353 43.571,240.814 43.843 C 240.276 44.115,239.797 44.336,239.751 44.335 C 239.263 44.324,239.162 44.357,239.249 44.498 C 239.307 44.593,239.240 44.620,239.089 44.562 C 238.945 44.507,238.622 44.542,238.372 44.640 C 238.122 44.737,237.692 44.837,237.417 44.861 C 237.142 44.885,236.842 44.954,236.750 45.015 C 236.658 45.076,236.058 45.184,235.417 45.256 C 234.775 45.327,234.100 45.408,233.917 45.436 C 233.733 45.463,232.177 45.537,230.457 45.599 L 227.331 45.712 227.335 25.424 L 227.339 5.136 236.544 5.224 C 241.607 5.272,246.350 5.366,247.083 5.432 C 247.817 5.499,248.998 5.560,249.708 5.568 C 250.419 5.577,251.000 5.644,251.000 5.718 C 251.000 5.792,251.070 5.810,251.155 5.757 C 251.240 5.704,251.359 5.740,251.419 5.837 C 251.478 5.933,251.802 6.009,252.139 6.005 C 253.089 5.994,254.009 6.184,253.895 6.368 C 253.836 6.464,253.936 6.457,254.133 6.351 C 254.320 6.251,254.498 6.229,254.528 6.301 C 254.559 6.374,255.108 6.603,255.750 6.811 C 257.041 7.229,258.350 7.826,258.539 8.083 C 258.606 8.175,258.663 8.190,258.664 8.117 C 258.666 8.044,259.023 8.229,259.458 8.529 C 259.894 8.828,260.252 9.038,260.255 8.995 C 260.258 8.952,260.446 9.085,260.672 9.290 C 261.708 10.229,262.296 10.649,262.419 10.538 C 262.493 10.471,262.510 10.494,262.456 10.588 C 262.403 10.683,262.728 11.159,263.180 11.648 C 263.631 12.136,264.000 12.589,264.000 12.655 C 264.000 12.721,264.177 12.942,264.393 13.145 C 264.610 13.348,264.928 13.810,265.102 14.172 C 265.275 14.534,265.523 14.830,265.653 14.831 C 265.783 14.832,265.844 14.878,265.789 14.933 C 265.697 15.026,267.092 17.983,267.315 18.167 C 267.371 18.212,267.433 18.325,267.454 18.417 C 267.496 18.604,267.958 19.949,268.112 20.333 C 268.168 20.471,268.231 20.696,268.254 20.833 C 268.276 20.971,268.539 21.796,268.838 22.667 C 269.136 23.537,269.396 24.363,269.416 24.500 C 269.436 24.637,269.506 24.975,269.571 25.250 C 269.637 25.525,269.775 26.109,269.878 26.547 C 270.011 27.112,270.133 27.318,270.296 27.255 C 270.423 27.207,271.353 27.167,272.363 27.167 L 274.199 27.167 274.079 23.208 C 274.013 21.031,273.960 18.969,273.960 18.625 C 273.961 18.271,273.880 17.999,273.772 17.997 C 273.668 17.996,273.696 17.921,273.833 17.831 C 273.990 17.728,274.021 17.620,273.917 17.542 C 273.815 17.466,273.738 15.878,273.718 13.500 C 273.701 11.346,273.640 8.571,273.583 7.333 C 273.526 6.096,273.455 4.371,273.425 3.500 C 273.395 2.629,273.362 1.860,273.352 1.792 C 273.342 1.723,255.690 1.667,234.125 1.667 L 194.917 1.667 194.917 3.417 M287.111 1.778 C 287.050 1.839,287.000 2.645,287.000 3.569 L 287.000 5.250 294.000 5.203 L 301.000 5.156 301.000 48.828 L 301.000 92.500 294.167 92.500 C 288.812 92.500,287.333 92.545,287.331 92.708 C 287.329 92.848,287.274 92.834,287.163 92.667 C 287.051 92.496,287.012 93.025,287.041 94.333 C 287.064 95.388,287.140 96.231,287.208 96.208 C 287.277 96.185,294.571 96.167,303.417 96.167 L 319.500 96.167 319.500 94.333 L 319.500 92.500 312.667 92.500 L 305.833 92.500 305.846 50.125 C 305.859 8.739,305.866 7.769,306.167 8.583 C 306.336 9.042,306.480 9.567,306.488 9.750 C 306.496 9.933,306.615 10.299,306.753 10.564 C 306.890 10.828,307.041 11.259,307.087 11.522 C 307.133 11.784,307.324 12.386,307.510 12.859 C 307.697 13.332,307.809 13.823,307.760 13.951 C 307.711 14.079,307.745 14.138,307.835 14.082 C 307.926 14.026,308.011 14.116,308.025 14.282 C 308.065 14.747,308.099 14.879,308.322 15.417 C 308.516 15.884,308.620 16.241,308.733 16.824 C 308.758 16.957,308.869 17.095,308.980 17.132 C 309.133 17.183,309.135 17.254,308.987 17.433 C 308.873 17.570,308.861 17.667,308.959 17.667 C 309.050 17.667,309.125 17.863,309.125 18.102 C 309.125 18.342,309.205 18.587,309.302 18.648 C 309.400 18.708,309.514 18.943,309.557 19.170 C 309.711 19.995,309.882 20.587,310.014 20.757 C 310.145 20.924,310.502 22.199,310.538 22.625 C 310.548 22.740,310.618 22.833,310.694 22.833 C 310.771 22.833,310.817 22.890,310.798 22.958 C 310.778 23.027,310.839 23.233,310.933 23.417 C 311.027 23.600,311.091 23.919,311.075 24.125 C 311.059 24.331,311.110 24.500,311.189 24.500 C 311.269 24.500,311.337 24.631,311.341 24.792 C 311.345 24.952,311.463 25.383,311.603 25.750 C 311.743 26.117,311.862 26.529,311.868 26.667 C 311.874 26.804,311.935 26.992,312.003 27.083 C 312.072 27.175,312.183 27.512,312.250 27.833 C 312.317 28.154,312.430 28.492,312.500 28.583 C 312.570 28.675,312.683 29.012,312.750 29.333 C 312.817 29.654,312.932 29.992,313.005 30.083 C 313.078 30.175,313.145 30.306,313.152 30.375 C 313.160 30.444,313.172 30.519,313.179 30.542 C 313.186 30.565,313.218 30.720,313.250 30.887 C 313.304 31.174,314.410 34.629,314.619 35.167 C 314.673 35.304,314.745 35.567,314.780 35.750 C 314.815 35.933,314.916 36.108,315.006 36.139 C 315.095 36.170,315.132 36.255,315.087 36.328 C 314.987 36.489,315.579 38.336,315.777 38.481 C 315.854 38.537,315.916 38.808,315.916 39.083 C 315.915 39.358,315.997 39.733,316.098 39.917 C 316.199 40.100,316.417 40.737,316.582 41.333 C 316.747 41.929,317.064 42.942,317.287 43.583 C 317.790 45.031,318.022 45.830,318.050 46.208 C 318.062 46.369,318.130 46.500,318.202 46.500 C 318.274 46.500,318.333 46.612,318.333 46.750 C 318.333 46.887,318.390 47.000,318.458 47.000 C 318.574 47.000,318.650 47.371,318.722 48.276 C 318.737 48.473,318.798 48.605,318.856 48.569 C 319.001 48.480,319.207 49.166,319.172 49.622 C 319.156 49.827,319.204 50.089,319.278 50.206 C 319.351 50.322,319.419 50.454,319.429 50.500 C 319.438 50.546,319.489 50.696,319.543 50.833 C 319.946 51.864,320.307 53.074,320.242 53.179 C 320.200 53.248,320.242 53.331,320.336 53.362 C 320.430 53.393,320.524 53.662,320.545 53.959 C 320.566 54.256,320.631 54.499,320.690 54.500 C 320.781 54.500,320.861 54.707,321.091 55.542 C 321.110 55.610,321.140 55.685,321.159 55.708 C 321.212 55.775,321.320 56.220,321.370 56.583 C 321.396 56.767,321.471 56.957,321.537 57.007 C 321.604 57.057,321.689 57.282,321.727 57.507 C 321.765 57.732,321.881 57.897,321.985 57.874 C 322.103 57.847,322.138 57.973,322.078 58.214 C 322.023 58.430,322.127 58.936,322.318 59.381 C 322.503 59.813,322.623 60.167,322.583 60.167 C 322.544 60.167,322.654 60.497,322.827 60.901 C 323.000 61.305,323.091 61.687,323.029 61.748 C 322.968 61.810,323.063 61.967,323.240 62.097 C 323.418 62.227,323.481 62.333,323.381 62.333 C 323.195 62.333,323.275 62.936,323.502 63.250 C 323.569 63.342,323.715 63.811,323.828 64.292 C 323.941 64.774,324.101 65.209,324.183 65.260 C 324.266 65.311,324.333 65.532,324.333 65.750 C 324.333 65.968,324.410 66.195,324.504 66.253 C 324.599 66.311,324.658 66.447,324.636 66.554 C 324.614 66.662,324.680 66.900,324.782 67.083 C 324.979 67.438,325.000 67.519,325.000 67.927 C 325.000 68.090,325.077 68.140,325.208 68.061 C 325.370 67.964,325.373 67.990,325.223 68.176 C 325.073 68.363,325.097 68.555,325.329 69.033 C 325.494 69.372,325.595 69.683,325.553 69.725 C 325.511 69.767,325.556 69.939,325.652 70.109 C 325.914 70.570,326.869 73.511,326.939 74.074 C 326.973 74.344,327.060 74.606,327.131 74.657 C 327.203 74.708,327.255 74.862,327.248 75.000 C 327.237 75.226,327.363 75.622,327.753 76.583 C 327.924 77.007,327.954 77.112,327.979 77.405 C 327.991 77.536,328.118 77.761,328.262 77.905 C 328.448 78.090,328.462 78.167,328.312 78.167 C 328.147 78.167,328.144 78.211,328.300 78.367 C 328.410 78.477,328.500 78.702,328.500 78.867 C 328.500 79.032,328.562 79.167,328.639 79.167 C 328.715 79.167,328.764 79.335,328.747 79.542 C 328.731 79.748,328.776 79.956,328.848 80.004 C 328.921 80.051,329.020 80.313,329.069 80.585 C 329.152 81.040,329.252 81.356,329.598 82.250 C 329.668 82.433,329.740 82.696,329.756 82.833 C 329.773 82.971,330.097 84.000,330.477 85.121 C 330.856 86.242,331.167 87.275,331.167 87.415 C 331.167 87.555,331.314 87.988,331.495 88.377 C 331.675 88.765,331.931 89.496,332.062 90.000 C 332.194 90.504,332.375 91.104,332.464 91.333 C 332.648 91.804,332.641 91.784,332.774 92.290 C 332.827 92.495,332.931 92.626,333.003 92.581 C 333.076 92.536,333.096 92.650,333.048 92.834 C 333.000 93.018,333.041 93.265,333.138 93.383 C 333.236 93.501,333.358 93.834,333.409 94.123 C 333.460 94.413,333.588 94.860,333.694 95.116 C 333.876 95.560,333.916 95.698,333.975 96.083 C 333.990 96.187,334.920 96.238,336.450 96.218 L 338.900 96.185 339.204 95.593 C 339.426 95.160,339.451 94.999,339.296 94.997 C 339.149 94.996,339.141 94.957,339.267 94.872 C 339.515 94.707,340.116 92.991,340.083 92.542 C 340.069 92.344,340.119 92.221,340.195 92.268 C 340.271 92.315,340.343 92.292,340.355 92.218 C 340.366 92.144,340.396 91.933,340.420 91.750 C 340.445 91.567,340.594 91.117,340.752 90.750 C 340.910 90.383,341.033 90.046,341.025 90.000 C 340.993 89.804,341.396 88.667,341.499 88.667 C 341.560 88.667,341.611 88.435,341.611 88.152 C 341.611 87.869,341.717 87.570,341.847 87.488 C 341.977 87.406,342.035 87.337,341.976 87.336 C 341.862 87.333,342.664 84.730,342.888 84.375 C 342.969 84.248,342.935 84.166,342.802 84.164 C 342.623 84.162,342.623 84.137,342.800 84.024 C 342.919 83.949,343.029 83.725,343.044 83.527 C 343.059 83.329,343.130 83.167,343.202 83.167 C 343.274 83.167,343.333 82.985,343.333 82.764 C 343.333 82.542,343.403 82.336,343.487 82.306 C 343.572 82.275,343.671 82.025,343.707 81.750 C 343.799 81.050,344.500 78.792,344.703 78.544 C 344.795 78.430,344.827 78.224,344.774 78.085 C 344.721 77.947,344.746 77.833,344.831 77.833 C 344.916 77.833,345.036 77.552,345.098 77.208 C 345.160 76.865,345.291 76.433,345.389 76.250 C 345.487 76.067,345.590 75.779,345.618 75.611 C 345.646 75.444,346.009 74.283,346.424 73.033 C 346.840 71.783,347.203 70.645,347.232 70.505 C 347.260 70.365,347.332 70.137,347.391 70.000 C 347.715 69.245,348.312 66.934,348.222 66.787 C 348.163 66.693,348.190 66.661,348.282 66.718 C 348.373 66.775,348.527 66.565,348.623 66.252 C 348.750 65.836,348.746 65.661,348.607 65.604 C 348.502 65.561,348.543 65.520,348.698 65.513 C 348.853 65.506,348.976 65.369,348.972 65.208 C 348.965 64.948,349.108 64.474,349.510 63.417 C 349.805 62.642,350.167 61.331,350.167 61.038 C 350.167 60.864,350.216 60.672,350.277 60.612 C 350.444 60.445,351.000 58.804,351.000 58.479 C 351.000 58.322,351.094 58.157,351.208 58.110 C 351.367 58.046,351.364 58.023,351.196 58.013 C 351.030 58.003,351.040 57.937,351.238 57.738 C 351.382 57.594,351.500 57.336,351.500 57.165 C 351.500 56.993,351.575 56.807,351.667 56.750 C 351.758 56.693,351.833 56.572,351.833 56.480 C 351.833 56.389,351.760 56.359,351.670 56.415 C 351.580 56.470,351.614 56.306,351.745 56.049 C 351.960 55.627,352.175 55.049,352.196 54.833 C 352.201 54.788,352.351 54.379,352.530 53.925 C 352.708 53.471,352.819 52.965,352.776 52.800 C 352.733 52.635,352.758 52.537,352.831 52.582 C 352.989 52.679,353.167 52.274,353.167 51.820 C 353.167 51.644,353.246 51.500,353.343 51.500 C 353.440 51.500,353.478 51.433,353.428 51.351 C 353.377 51.269,353.436 50.950,353.560 50.643 C 353.683 50.335,353.845 49.933,353.918 49.750 C 353.992 49.567,354.038 49.324,354.019 49.210 C 354.001 49.097,354.079 48.834,354.193 48.627 C 354.307 48.420,354.419 48.175,354.441 48.083 C 354.463 47.992,354.533 47.729,354.596 47.500 C 354.660 47.271,354.721 46.884,354.731 46.641 C 354.742 46.398,354.801 46.230,354.863 46.268 C 355.002 46.354,355.232 45.677,355.106 45.551 C 355.057 45.501,355.125 45.351,355.258 45.218 C 355.391 45.085,355.500 44.831,355.500 44.653 C 355.500 44.474,355.569 44.199,355.653 44.039 C 355.738 43.880,356.164 42.587,356.601 41.167 C 357.037 39.746,357.464 38.536,357.548 38.479 C 357.636 38.420,357.615 38.321,357.500 38.250 C 357.343 38.153,357.346 38.095,357.512 37.993 C 357.629 37.920,357.751 37.690,357.783 37.480 C 357.849 37.052,358.608 34.639,358.879 34.000 C 358.976 33.771,359.080 33.490,359.111 33.375 C 359.237 32.902,359.288 32.738,359.379 32.500 C 359.630 31.843,360.920 27.720,360.942 27.500 C 360.994 26.993,361.210 26.500,361.381 26.500 C 361.477 26.500,361.514 26.459,361.464 26.408 C 361.372 26.317,362.006 24.104,362.630 22.333 C 362.808 21.829,362.964 21.342,362.978 21.250 C 362.999 21.100,363.226 20.325,363.440 19.667 C 363.485 19.529,363.523 19.379,363.525 19.333 C 363.527 19.287,363.606 19.156,363.701 19.042 C 363.796 18.927,363.828 18.833,363.772 18.833 C 363.716 18.833,363.845 18.365,364.060 17.792 C 364.469 16.699,364.925 15.005,364.867 14.792 C 364.849 14.723,364.900 14.667,364.982 14.667 C 365.144 14.667,365.502 13.581,365.532 13.000 C 365.540 12.862,365.626 12.649,365.724 12.525 C 365.909 12.291,365.987 12.015,366.048 11.375 C 366.067 11.169,366.182 11.000,366.302 11.000 C 366.421 11.000,366.476 10.929,366.422 10.842 C 366.368 10.755,366.484 10.211,366.679 9.633 C 366.874 9.056,367.062 8.439,367.096 8.262 C 367.459 6.404,367.501 10.384,367.541 50.051 L 367.583 92.500 360.500 92.500 L 353.417 92.499 353.469 94.333 L 353.521 96.167 376.385 96.169 C 388.961 96.170,399.400 96.212,399.583 96.261 C 399.905 96.348,399.915 96.282,399.865 94.426 L 399.813 92.500 392.865 92.500 L 385.917 92.500 385.958 48.875 L 385.999 5.250 392.916 5.207 L 399.833 5.163 399.833 3.415 L 399.833 1.667 381.843 1.667 C 365.493 1.667,363.040 1.720,363.874 2.056 C 364.040 2.123,364.041 2.143,363.875 2.154 C 363.760 2.161,363.667 2.237,363.667 2.322 C 363.667 2.408,363.579 2.689,363.472 2.947 C 363.365 3.206,363.267 3.529,363.254 3.667 C 363.241 3.804,363.102 4.209,362.946 4.567 C 362.790 4.925,362.645 5.461,362.623 5.759 C 362.601 6.057,362.529 6.268,362.463 6.227 C 362.397 6.186,362.293 6.362,362.232 6.618 C 362.171 6.874,362.076 7.158,362.021 7.250 C 361.967 7.342,361.921 7.536,361.919 7.683 C 361.918 7.829,361.804 8.087,361.667 8.256 C 361.497 8.465,361.487 8.521,361.637 8.431 C 361.808 8.329,361.822 8.369,361.699 8.608 C 361.368 9.248,360.819 11.342,360.933 11.526 C 361.006 11.645,360.978 11.673,360.859 11.599 C 360.740 11.526,360.667 11.597,360.667 11.786 C 360.667 11.955,360.557 12.249,360.423 12.441 C 360.288 12.633,360.220 12.831,360.270 12.881 C 360.321 12.932,360.248 13.223,360.109 13.528 C 359.750 14.319,359.162 16.524,359.266 16.692 C 359.314 16.770,359.290 16.833,359.213 16.833 C 359.030 16.833,358.651 17.840,358.765 18.024 C 358.813 18.103,358.790 18.167,358.713 18.167 C 358.636 18.167,358.475 18.523,358.355 18.958 C 358.236 19.394,358.063 19.950,357.971 20.194 C 357.880 20.438,357.742 20.888,357.665 21.194 C 357.588 21.500,357.331 22.305,357.093 22.983 C 356.855 23.661,356.699 24.254,356.746 24.301 C 356.792 24.348,356.748 24.486,356.647 24.608 C 356.545 24.729,356.504 24.936,356.554 25.067 C 356.604 25.198,356.544 25.345,356.420 25.392 C 356.297 25.440,356.101 25.899,355.986 26.414 C 355.871 26.928,355.718 27.385,355.646 27.430 C 355.574 27.474,355.558 27.624,355.611 27.762 C 355.664 27.900,355.594 28.141,355.455 28.298 C 355.316 28.455,355.151 28.902,355.087 29.292 C 355.023 29.681,354.919 30.000,354.855 30.000 C 354.791 30.000,354.725 30.172,354.708 30.382 C 354.690 30.593,354.565 31.080,354.429 31.466 C 354.293 31.851,354.234 32.168,354.299 32.169 C 354.364 32.171,354.311 32.239,354.182 32.321 C 354.052 32.402,353.935 32.608,353.921 32.776 C 353.868 33.397,352.378 37.970,352.139 38.242 C 352.063 38.329,352.000 38.606,352.000 38.857 C 352.000 39.108,351.920 39.363,351.822 39.424 C 351.724 39.484,351.683 39.636,351.731 39.762 C 351.779 39.887,351.746 40.034,351.657 40.090 C 351.568 40.145,351.535 40.254,351.583 40.333 C 351.632 40.412,351.595 40.525,351.500 40.583 C 351.405 40.642,351.371 40.760,351.424 40.845 C 351.477 40.930,351.432 41.000,351.324 41.000 C 351.202 41.000,351.156 41.187,351.202 41.500 C 351.243 41.775,351.225 42.000,351.163 42.000 C 351.012 42.000,350.000 45.025,350.000 45.477 C 350.000 45.673,349.925 45.833,349.833 45.833 C 349.742 45.833,349.666 46.002,349.664 46.208 C 349.661 46.743,349.482 47.342,349.350 47.260 C 349.288 47.222,349.222 47.377,349.203 47.604 C 349.184 47.832,349.091 48.164,348.995 48.342 C 348.900 48.521,348.859 48.667,348.904 48.667 C 348.949 48.667,348.727 49.381,348.411 50.253 C 348.095 51.126,347.795 52.082,347.743 52.378 C 347.691 52.674,347.200 54.229,346.650 55.833 C 346.101 57.438,345.611 58.975,345.561 59.250 C 345.511 59.525,345.406 59.774,345.328 59.802 C 345.249 59.831,345.227 59.963,345.277 60.094 C 345.328 60.226,345.277 60.333,345.164 60.333 C 345.011 60.333,345.017 60.405,345.188 60.615 C 345.314 60.770,345.342 60.853,345.250 60.799 C 345.153 60.741,344.768 61.710,344.333 63.100 C 343.921 64.420,343.545 65.500,343.499 65.500 C 343.408 65.500,342.706 63.620,342.593 63.074 C 342.556 62.896,342.401 62.413,342.249 62.000 C 342.098 61.587,341.939 61.071,341.896 60.852 C 341.853 60.633,341.697 60.183,341.549 59.852 C 341.401 59.521,341.264 59.119,341.244 58.958 C 341.224 58.798,341.190 58.629,341.167 58.583 C 341.092 58.434,341.042 58.174,341.021 57.823 C 341.008 57.609,340.928 57.525,340.808 57.599 C 340.684 57.676,340.661 57.645,340.742 57.513 C 340.812 57.400,340.757 56.995,340.619 56.612 C 340.482 56.230,340.275 55.542,340.159 55.083 C 340.043 54.625,339.807 53.966,339.634 53.619 C 339.462 53.272,339.360 52.925,339.409 52.847 C 339.457 52.768,339.381 52.609,339.240 52.492 C 339.095 52.371,339.053 52.237,339.144 52.181 C 339.239 52.122,339.191 51.846,339.027 51.499 C 338.874 51.179,338.728 50.729,338.700 50.500 C 338.625 49.863,338.312 49.160,338.149 49.261 C 338.069 49.310,338.049 49.233,338.104 49.089 C 338.159 48.945,338.122 48.622,338.020 48.372 C 337.919 48.122,337.815 47.767,337.788 47.583 C 337.762 47.400,337.699 47.175,337.649 47.083 C 337.599 46.992,337.422 46.429,337.255 45.833 C 337.089 45.237,336.798 44.225,336.608 43.583 C 336.418 42.942,336.250 42.360,336.235 42.292 C 336.220 42.223,336.190 42.129,336.167 42.083 C 336.144 42.037,336.110 41.944,336.092 41.875 C 336.074 41.806,335.981 41.563,335.884 41.333 C 335.624 40.713,335.360 39.820,335.253 39.200 C 335.201 38.897,335.091 38.522,335.009 38.367 C 334.790 37.956,334.336 36.497,334.250 35.929 C 334.209 35.661,334.092 35.390,333.990 35.327 C 333.888 35.264,333.814 35.146,333.826 35.065 C 333.883 34.656,333.449 33.345,333.288 33.444 C 333.176 33.514,333.149 33.452,333.216 33.278 C 333.275 33.125,333.173 32.494,332.990 31.875 C 332.807 31.256,332.540 30.356,332.396 29.875 C 332.253 29.394,332.063 29.000,331.975 29.000 C 331.886 29.000,331.851 28.939,331.897 28.866 C 331.942 28.792,331.787 28.098,331.550 27.324 C 331.314 26.550,331.112 25.748,331.102 25.542 C 331.092 25.334,330.971 25.161,330.833 25.154 C 330.680 25.145,330.659 25.109,330.780 25.060 C 330.966 24.984,330.820 24.357,330.320 23.083 C 330.127 22.591,329.343 20.064,329.276 19.717 C 329.244 19.552,329.132 19.208,329.028 18.954 C 328.924 18.700,328.806 18.325,328.766 18.121 C 328.726 17.917,328.539 17.262,328.349 16.667 C 328.159 16.071,328.003 15.452,328.002 15.292 C 328.001 15.131,327.934 15.000,327.852 15.000 C 327.771 15.000,327.662 14.775,327.609 14.499 C 327.557 14.223,327.485 13.905,327.450 13.791 C 327.414 13.677,327.329 13.358,327.260 13.083 C 327.092 12.412,326.668 11.144,326.506 10.827 C 326.434 10.686,326.321 10.255,326.256 9.869 C 326.191 9.483,326.065 9.167,325.976 9.167 C 325.886 9.167,325.855 9.100,325.906 9.018 C 325.956 8.936,325.893 8.617,325.765 8.309 C 325.637 8.002,325.495 7.517,325.451 7.231 C 325.406 6.946,325.280 6.546,325.171 6.342 C 325.062 6.138,325.016 5.929,325.068 5.876 C 325.121 5.824,325.080 5.680,324.978 5.557 C 324.876 5.434,324.848 5.333,324.917 5.333 C 324.985 5.333,324.961 5.238,324.864 5.121 C 324.767 5.004,324.661 4.723,324.628 4.496 C 324.595 4.269,324.465 3.896,324.339 3.667 C 324.213 3.438,324.119 3.212,324.130 3.167 C 324.141 3.121,324.070 2.765,323.972 2.375 L 323.794 1.667 305.508 1.667 C 295.451 1.667,287.172 1.717,287.111 1.778 M129.874 5.413 C 131.122 5.447,132.039 5.405,132.097 5.311 C 132.157 5.214,132.273 5.210,132.390 5.301 C 132.496 5.384,132.827 5.456,133.125 5.461 C 133.423 5.466,133.685 5.480,133.708 5.492 C 133.731 5.505,134.425 5.552,135.250 5.597 C 140.351 5.875,142.667 6.113,142.667 6.360 C 142.667 6.448,142.747 6.470,142.845 6.410 C 143.043 6.287,144.787 6.572,146.123 6.945 C 146.603 7.079,147.072 7.142,147.164 7.085 C 147.257 7.027,147.333 7.056,147.333 7.149 C 147.333 7.285,147.837 7.448,148.667 7.582 C 148.712 7.589,148.900 7.676,149.083 7.775 C 149.267 7.873,149.639 8.007,149.910 8.072 C 150.592 8.236,152.222 9.035,152.379 9.282 C 152.451 9.394,152.632 9.439,152.782 9.381 C 152.956 9.314,153.014 9.343,152.941 9.460 C 152.874 9.570,153.060 9.727,153.405 9.852 C 153.723 9.967,153.944 10.122,153.898 10.197 C 153.852 10.272,153.930 10.333,154.072 10.333 C 154.404 10.333,157.114 12.945,157.226 13.374 C 157.273 13.554,157.387 13.653,157.480 13.596 C 157.580 13.534,157.622 13.631,157.583 13.833 C 157.547 14.022,157.589 14.132,157.675 14.078 C 157.762 14.024,157.833 14.097,157.833 14.240 C 157.833 14.383,157.977 14.644,158.153 14.819 C 158.328 14.995,158.428 15.183,158.375 15.236 C 158.322 15.290,158.365 15.333,158.472 15.333 C 158.579 15.333,158.655 15.390,158.640 15.458 C 158.625 15.527,158.711 15.808,158.832 16.083 C 158.953 16.358,159.072 16.687,159.097 16.813 C 159.123 16.940,159.224 17.124,159.322 17.222 C 159.420 17.320,159.500 17.535,159.500 17.700 C 159.500 17.865,159.587 18.000,159.694 18.000 C 159.801 18.000,159.842 18.047,159.784 18.104 C 159.727 18.162,159.791 18.424,159.928 18.688 C 160.064 18.951,160.127 19.167,160.067 19.167 C 160.008 19.167,160.053 19.279,160.167 19.417 C 160.281 19.554,160.318 19.667,160.250 19.667 C 160.182 19.667,160.200 19.760,160.290 19.875 C 160.431 20.054,160.524 20.324,160.762 21.250 C 160.785 21.342,160.920 21.735,161.062 22.125 C 161.203 22.515,161.275 22.833,161.222 22.833 C 161.169 22.833,161.200 22.927,161.290 23.042 C 161.380 23.156,161.502 23.620,161.561 24.073 C 161.620 24.525,161.789 25.078,161.935 25.301 C 162.081 25.525,162.118 25.657,162.017 25.594 C 161.791 25.454,161.783 25.331,162.100 26.917 C 162.247 27.650,162.366 28.363,162.365 28.500 C 162.364 28.637,162.428 28.975,162.506 29.250 C 162.585 29.525,162.691 30.125,162.742 30.583 C 162.870 31.723,162.918 31.974,163.035 32.091 C 163.091 32.146,163.074 32.410,162.997 32.677 C 162.914 32.965,162.922 33.202,163.016 33.260 C 163.103 33.314,163.158 33.785,163.137 34.307 C 163.116 34.829,163.153 35.344,163.219 35.450 C 163.324 35.619,163.436 37.167,163.558 40.116 C 163.578 40.593,163.646 41.035,163.709 41.098 C 163.772 41.161,163.782 41.282,163.730 41.366 C 163.678 41.451,163.606 44.421,163.570 47.968 C 163.534 51.515,163.468 54.829,163.424 55.333 C 163.380 55.837,163.309 56.661,163.265 57.162 C 163.212 57.762,163.253 58.125,163.384 58.220 C 163.520 58.319,163.498 58.338,163.315 58.280 C 163.083 58.207,163.058 58.339,163.126 59.286 C 163.169 59.886,163.140 60.337,163.061 60.288 C 162.982 60.239,162.913 60.585,162.908 61.058 C 162.900 61.908,162.714 63.568,162.553 64.237 C 162.507 64.427,162.446 64.808,162.417 65.083 C 162.350 65.734,162.180 66.739,161.987 67.624 C 161.902 68.013,161.842 68.388,161.853 68.457 C 161.864 68.527,161.858 68.621,161.840 68.667 C 161.759 68.876,161.637 69.444,161.617 69.708 C 161.605 69.869,161.518 70.001,161.423 70.003 C 161.328 70.004,161.362 70.078,161.500 70.167 C 161.637 70.256,161.672 70.329,161.577 70.331 C 161.482 70.332,161.386 70.572,161.364 70.864 C 161.342 71.156,161.248 71.485,161.156 71.596 C 161.064 71.707,161.003 71.862,161.021 71.941 C 161.065 72.128,160.861 72.934,160.578 73.689 C 160.453 74.023,160.397 74.342,160.453 74.398 C 160.510 74.454,160.468 74.500,160.361 74.500 C 160.254 74.500,160.167 74.676,160.167 74.891 C 160.167 75.106,160.050 75.517,159.907 75.803 C 159.764 76.090,159.635 76.475,159.621 76.658 C 159.608 76.841,159.495 77.030,159.371 77.078 C 159.247 77.125,159.194 77.243,159.254 77.339 C 159.313 77.436,159.248 77.689,159.109 77.902 C 158.912 78.201,158.900 78.337,159.053 78.502 C 159.172 78.632,159.178 78.675,159.066 78.613 C 158.903 78.522,158.607 78.951,158.511 79.417 C 158.492 79.508,158.357 79.715,158.212 79.875 C 158.067 80.035,157.998 80.167,158.058 80.167 C 158.209 80.167,157.328 81.776,156.962 82.169 C 156.800 82.343,156.667 82.551,156.667 82.630 C 156.667 82.710,156.408 83.139,156.092 83.583 C 155.775 84.028,155.562 84.473,155.618 84.571 C 155.674 84.669,155.666 84.702,155.600 84.643 C 155.475 84.531,155.227 84.755,154.042 86.051 C 153.652 86.477,153.333 86.779,153.333 86.722 C 153.333 86.665,153.005 86.956,152.603 87.370 C 152.201 87.783,151.639 88.225,151.353 88.351 C 151.067 88.478,150.833 88.634,150.833 88.699 C 150.833 88.763,150.458 89.004,150.000 89.234 C 149.542 89.465,149.167 89.607,149.167 89.551 C 149.167 89.494,149.035 89.558,148.875 89.693 C 148.206 90.254,144.558 91.500,143.585 91.500 C 143.366 91.500,143.142 91.572,143.088 91.659 C 143.034 91.747,142.879 91.777,142.745 91.725 C 142.610 91.673,142.369 91.687,142.208 91.755 C 141.900 91.886,141.656 91.918,140.583 91.972 C 140.085 91.997,139.980 92.046,140.167 92.167 C 140.317 92.264,140.337 92.329,140.218 92.331 C 140.109 92.332,139.981 92.271,139.934 92.195 C 139.888 92.120,139.339 92.122,138.716 92.201 C 137.522 92.352,135.472 92.465,133.250 92.501 C 132.343 92.516,132.023 92.569,132.250 92.667 C 132.486 92.768,132.508 92.813,132.325 92.822 C 132.183 92.828,131.993 92.760,131.903 92.670 C 131.808 92.575,130.099 92.488,127.828 92.461 L 123.917 92.417 123.875 48.771 L 123.833 5.125 125.791 5.240 C 126.869 5.303,128.706 5.381,129.874 5.413 " stroke="none" fill="#048cac" fill-rule="evenodd"></path><path id="path1" d="M139.167 1.731 C 139.167 1.766,139.354 1.830,139.583 1.874 C 139.813 1.918,140.000 1.889,140.000 1.810 C 140.000 1.731,139.813 1.667,139.583 1.667 C 139.354 1.667,139.167 1.695,139.167 1.731 M399.833 3.417 L 399.833 5.167 392.927 5.167 C 389.128 5.167,385.985 5.223,385.942 5.292 C 385.900 5.360,389.045 5.396,392.933 5.371 L 400.000 5.326 400.000 3.496 C 400.000 2.490,399.962 1.667,399.917 1.667 C 399.871 1.667,399.833 2.454,399.833 3.417 M141.375 1.948 C 141.535 1.990,141.798 1.990,141.958 1.948 C 142.119 1.906,141.987 1.872,141.667 1.872 C 141.346 1.872,141.215 1.906,141.375 1.948 M194.894 3.417 C 194.895 4.333,194.923 4.687,194.956 4.203 C 194.990 3.718,194.990 2.968,194.956 2.536 C 194.921 2.104,194.894 2.500,194.894 3.417 M363.294 2.912 C 363.250 3.138,363.270 3.289,363.337 3.248 C 363.516 3.137,363.658 2.500,363.504 2.500 C 363.431 2.500,363.337 2.685,363.294 2.912 M150.293 3.271 C 150.408 3.321,150.471 3.412,150.434 3.473 C 150.396 3.533,150.579 3.583,150.841 3.583 C 151.416 3.583,151.273 3.414,150.583 3.278 C 150.308 3.224,150.178 3.221,150.293 3.271 M3.136 5.291 C 4.907 5.319,7.757 5.318,9.469 5.291 C 11.182 5.264,9.733 5.242,6.250 5.242 C 2.767 5.242,1.365 5.264,3.136 5.291 M34.970 5.292 C 37.291 5.318,41.041 5.318,43.303 5.292 C 45.566 5.265,43.667 5.244,39.083 5.244 C 34.500 5.244,32.649 5.265,34.970 5.292 M48.917 5.333 L 48.417 5.461 48.865 5.480 C 49.112 5.491,49.360 5.425,49.417 5.333 C 49.473 5.242,49.496 5.176,49.468 5.186 C 49.440 5.197,49.192 5.263,48.917 5.333 M98.791 5.291 L 105.499 5.337 105.542 48.919 L 105.584 92.500 105.584 48.875 L 105.583 5.250 98.833 5.247 L 92.083 5.244 98.791 5.291 M123.875 48.792 L 123.916 92.417 123.958 48.883 L 124.001 5.350 124.959 5.290 L 125.917 5.230 124.875 5.198 L 123.833 5.167 123.875 48.792 M197.250 5.286 C 203.608 5.403,209.167 5.405,209.167 5.292 C 209.167 5.223,205.923 5.183,201.958 5.204 C 197.994 5.224,195.875 5.261,197.250 5.286 M231.470 5.292 C 233.791 5.318,237.541 5.318,239.803 5.292 C 242.066 5.265,240.167 5.244,235.583 5.244 C 231.000 5.244,229.149 5.265,231.470 5.292 M290.708 5.291 C 292.610 5.318,295.723 5.318,297.625 5.291 C 299.527 5.265,297.971 5.243,294.167 5.243 C 290.362 5.243,288.806 5.265,290.708 5.291 M273.539 5.833 C 273.539 6.154,273.573 6.285,273.615 6.125 C 273.657 5.965,273.657 5.702,273.615 5.542 C 273.573 5.381,273.539 5.513,273.539 5.833 M362.442 5.705 C 362.388 5.910,362.398 6.131,362.464 6.197 C 362.530 6.262,362.599 6.095,362.618 5.824 C 362.660 5.242,362.577 5.186,362.442 5.705 M134.208 5.615 C 134.369 5.657,134.631 5.657,134.792 5.615 C 134.952 5.573,134.821 5.539,134.500 5.539 C 134.179 5.539,134.048 5.573,134.208 5.615 M227.414 25.583 C 227.414 36.675,227.434 41.237,227.458 35.721 C 227.483 30.205,227.483 21.130,227.458 15.555 C 227.434 9.979,227.414 14.492,227.414 25.583 M250.194 5.687 C 250.471 5.863,251.000 5.876,251.000 5.708 C 250.999 5.640,250.768 5.575,250.486 5.565 C 250.147 5.553,250.048 5.594,250.194 5.687 M140.286 6.009 C 140.358 6.075,140.942 6.173,141.583 6.227 C 142.225 6.281,142.675 6.293,142.583 6.253 C 142.264 6.113,140.156 5.890,140.286 6.009 M56.667 6.139 C 56.804 6.224,57.104 6.343,57.333 6.404 C 57.623 6.482,57.674 6.469,57.500 6.361 C 57.362 6.276,57.063 6.157,56.833 6.096 C 56.544 6.018,56.493 6.031,56.667 6.139 M253.667 6.332 C 254.223 6.512,254.500 6.527,254.500 6.375 C 254.499 6.306,254.218 6.238,253.875 6.223 C 253.342 6.201,253.311 6.217,253.667 6.332 M325.512 7.615 C 325.549 8.048,325.810 8.415,325.822 8.052 C 325.828 7.851,325.758 7.640,325.667 7.583 C 325.575 7.527,325.505 7.541,325.512 7.615 M150.406 8.316 C 150.457 8.399,150.742 8.552,151.038 8.655 C 151.662 8.872,151.473 8.658,150.781 8.364 C 150.523 8.254,150.354 8.232,150.406 8.316 M63.958 9.098 C 63.847 9.208,65.050 10.336,65.270 10.328 C 65.351 10.325,65.285 10.247,65.125 10.153 C 64.965 10.060,64.833 9.870,64.833 9.732 C 64.833 9.594,64.763 9.524,64.678 9.576 C 64.593 9.629,64.417 9.521,64.288 9.337 C 64.159 9.153,64.010 9.045,63.958 9.098 M361.278 9.278 C 361.217 9.339,361.171 9.545,361.177 9.736 C 361.187 10.055,361.201 10.051,361.347 9.684 C 361.511 9.276,361.477 9.079,361.278 9.278 M261.083 9.772 C 261.175 9.852,261.519 10.164,261.847 10.465 C 262.243 10.827,262.444 10.928,262.444 10.763 C 262.444 10.626,262.392 10.547,262.328 10.587 C 262.264 10.626,262.071 10.504,261.899 10.314 C 261.727 10.124,261.436 9.892,261.252 9.797 C 261.068 9.703,260.992 9.692,261.083 9.772 M77.108 11.083 C 77.162 11.542,77.235 11.948,77.270 11.986 C 77.412 12.141,77.316 10.731,77.169 10.500 C 77.062 10.332,77.042 10.523,77.108 11.083 M155.500 11.552 C 155.500 11.581,155.744 11.825,156.042 12.094 L 156.583 12.583 156.094 12.042 C 155.638 11.537,155.500 11.423,155.500 11.552 M273.709 13.750 C 273.711 14.117,273.745 14.247,273.785 14.040 C 273.824 13.832,273.823 13.532,273.781 13.373 C 273.739 13.214,273.707 13.383,273.709 13.750 M168.774 13.628 C 168.731 13.698,168.885 13.845,169.118 13.955 C 169.531 14.150,169.534 14.147,169.244 13.827 C 168.912 13.460,168.885 13.448,168.774 13.628 M273.804 16.084 C 273.774 16.863,273.806 17.501,273.875 17.500 C 273.944 17.500,274.000 16.862,274.000 16.083 C 274.000 14.253,273.874 14.253,273.804 16.084 M359.429 15.095 C 359.367 15.339,359.349 15.571,359.389 15.611 C 359.428 15.650,359.510 15.482,359.571 15.238 C 359.633 14.994,359.651 14.762,359.611 14.723 C 359.572 14.683,359.490 14.851,359.429 15.095 M265.500 14.968 C 265.500 15.042,265.617 15.249,265.759 15.426 C 266.011 15.741,266.014 15.740,265.848 15.397 C 265.755 15.203,265.726 14.996,265.784 14.939 C 265.842 14.881,265.801 14.833,265.694 14.833 C 265.587 14.833,265.500 14.894,265.500 14.968 M170.958 15.806 C 171.256 16.086,171.500 16.398,171.500 16.500 C 171.500 16.603,171.572 16.642,171.660 16.587 C 171.849 16.471,171.233 15.712,170.750 15.466 C 170.566 15.373,170.660 15.525,170.958 15.806 M359.111 16.111 C 358.959 16.263,358.970 16.833,359.125 16.833 C 359.194 16.833,359.261 16.646,359.274 16.417 C 359.300 15.970,359.283 15.939,359.111 16.111 M77.372 16.667 C 77.372 16.987,77.406 17.119,77.448 16.958 C 77.490 16.798,77.490 16.535,77.448 16.375 C 77.406 16.215,77.372 16.346,77.372 16.667 M77.379 18.000 C 77.379 18.412,77.411 18.581,77.451 18.375 C 77.491 18.169,77.491 17.831,77.451 17.625 C 77.411 17.419,77.379 17.587,77.379 18.000 M363.934 18.110 C 363.785 18.546,363.729 18.832,363.809 18.744 C 363.994 18.540,364.356 17.468,364.269 17.381 C 364.234 17.345,364.082 17.673,363.934 18.110 M267.000 17.962 C 267.000 18.039,267.100 18.240,267.222 18.407 C 267.384 18.628,267.444 18.646,267.444 18.473 C 267.444 18.342,267.344 18.142,267.222 18.028 C 267.100 17.914,267.000 17.884,267.000 17.962 M328.852 18.504 C 328.958 18.823,329.112 19.157,329.194 19.246 C 329.276 19.336,329.255 19.148,329.148 18.830 C 329.042 18.511,328.888 18.177,328.806 18.087 C 328.724 17.998,328.745 18.185,328.852 18.504 M70.764 18.500 C 70.887 18.964,70.966 19.089,71.070 18.986 C 71.108 18.948,71.030 18.729,70.896 18.500 L 70.653 18.083 70.764 18.500 M267.505 19.000 C 267.505 19.137,267.578 19.362,267.667 19.500 C 267.810 19.722,267.828 19.722,267.828 19.500 C 267.828 19.362,267.756 19.137,267.667 19.000 C 267.523 18.778,267.505 18.778,267.505 19.000 M273.996 19.799 L 274.076 20.583 274.133 19.936 C 274.164 19.581,274.128 19.228,274.052 19.152 C 273.977 19.077,273.952 19.368,273.996 19.799 M77.556 21.667 C 77.556 22.354,77.585 22.635,77.621 22.292 C 77.657 21.948,77.657 21.385,77.621 21.042 C 77.585 20.698,77.556 20.979,77.556 21.667 M274.056 21.833 C 274.056 22.521,274.085 22.802,274.121 22.458 C 274.157 22.115,274.157 21.552,274.121 21.208 C 274.085 20.865,274.056 21.146,274.056 21.833 M77.542 23.583 C 77.544 23.950,77.578 24.080,77.618 23.873 C 77.658 23.666,77.656 23.366,77.615 23.206 C 77.573 23.047,77.540 23.217,77.542 23.583 M161.267 23.444 C 161.420 24.083,161.500 24.143,161.500 23.621 C 161.500 23.382,161.422 23.138,161.327 23.079 C 161.213 23.009,161.192 23.135,161.267 23.444 M310.684 23.250 C 310.698 23.617,310.948 24.053,311.049 23.888 C 311.108 23.793,311.048 23.573,310.917 23.400 C 310.785 23.226,310.680 23.158,310.684 23.250 M77.612 24.917 C 77.738 25.741,77.834 25.881,77.831 25.236 C 77.829 24.969,77.757 24.637,77.669 24.500 C 77.560 24.330,77.542 24.463,77.612 24.917 M73.376 27.000 C 73.431 27.204,73.811 27.252,75.430 27.259 L 77.417 27.268 75.506 27.211 C 74.255 27.175,73.546 27.085,73.452 26.953 C 73.349 26.808,73.327 26.821,73.376 27.000 M271.298 27.290 C 271.875 27.323,272.775 27.323,273.298 27.290 C 273.822 27.257,273.350 27.230,272.250 27.230 C 271.150 27.231,270.722 27.258,271.298 27.290 M52.064 28.574 C 52.013 28.706,52.007 28.949,52.050 29.115 C 52.102 29.315,52.135 29.263,52.147 28.964 L 52.167 28.511 54.125 28.458 L 56.083 28.405 54.120 28.369 C 52.540 28.340,52.138 28.380,52.064 28.574 M249.632 28.457 C 250.208 28.490,251.108 28.489,251.632 28.456 C 252.155 28.423,251.683 28.397,250.583 28.397 C 249.483 28.397,249.055 28.424,249.632 28.457 M252.914 48.417 C 252.914 59.325,252.934 63.763,252.958 58.279 C 252.983 52.795,252.983 43.870,252.958 38.445 C 252.934 33.021,252.914 37.508,252.914 48.417 M162.667 31.199 C 162.667 32.048,162.901 33.064,163.005 32.667 C 163.065 32.438,163.072 32.175,163.020 32.083 C 162.968 31.992,162.900 31.731,162.868 31.503 C 162.803 31.027,162.667 30.821,162.667 31.199 M333.219 32.865 C 333.226 33.203,333.292 33.442,333.366 33.396 C 333.440 33.351,333.506 33.449,333.513 33.615 C 333.520 33.781,333.559 33.838,333.599 33.742 C 333.639 33.645,333.567 33.270,333.439 32.908 L 333.206 32.250 333.219 32.865 M163.045 34.000 C 163.045 34.412,163.078 34.581,163.118 34.375 C 163.157 34.169,163.157 33.831,163.118 33.625 C 163.078 33.419,163.045 33.587,163.045 34.000 M358.683 34.433 C 358.587 34.781,358.539 35.095,358.576 35.131 C 358.612 35.168,358.721 34.914,358.817 34.567 C 358.913 34.219,358.961 33.905,358.924 33.869 C 358.888 33.832,358.779 34.086,358.683 34.433 M333.678 34.282 C 333.716 34.714,333.977 35.081,333.988 34.718 C 333.995 34.517,333.925 34.307,333.833 34.250 C 333.742 34.193,333.672 34.208,333.678 34.282 M163.169 36.097 C 163.171 36.456,163.243 36.862,163.331 37.000 C 163.438 37.168,163.458 36.977,163.392 36.417 C 163.270 35.382,163.166 35.233,163.169 36.097 M181.883 36.638 C 181.896 36.943,181.965 37.228,182.036 37.273 C 182.196 37.371,182.180 37.058,181.997 36.500 C 181.873 36.120,181.863 36.133,181.883 36.638 M163.385 38.583 C 163.386 39.133,163.417 39.338,163.454 39.039 C 163.491 38.739,163.490 38.289,163.452 38.039 C 163.414 37.788,163.384 38.033,163.385 38.583 M315.512 38.285 C 315.548 38.698,315.780 39.046,315.867 38.820 C 315.917 38.689,315.855 38.485,315.729 38.368 C 315.603 38.250,315.505 38.213,315.512 38.285 M182.443 39.533 C 182.583 40.270,182.667 40.334,182.667 39.704 C 182.667 39.419,182.593 39.141,182.503 39.085 C 182.400 39.021,182.378 39.190,182.443 39.533 M335.338 39.667 C 335.338 39.804,335.411 40.029,335.500 40.167 C 335.644 40.389,335.662 40.389,335.662 40.167 C 335.662 40.029,335.589 39.804,335.500 39.667 C 335.356 39.444,335.338 39.444,335.338 39.667 M316.251 40.661 C 316.300 40.979,316.415 41.315,316.508 41.408 C 316.621 41.521,316.624 41.413,316.518 41.080 C 316.233 40.185,316.162 40.074,316.251 40.661 M46.125 42.730 C 45.873 42.931,45.667 43.152,45.667 43.221 C 45.667 43.290,45.760 43.266,45.875 43.168 C 45.990 43.069,46.233 42.885,46.416 42.758 C 46.600 42.631,46.712 42.490,46.666 42.445 C 46.621 42.400,46.377 42.528,46.125 42.730 M163.566 45.917 C 163.566 47.200,163.592 47.703,163.624 47.034 C 163.656 46.366,163.655 45.316,163.623 44.701 C 163.591 44.086,163.565 44.633,163.566 45.917 M337.025 45.000 C 337.025 45.137,337.126 45.512,337.250 45.833 C 337.374 46.154,337.475 46.304,337.475 46.167 C 337.475 46.029,337.374 45.654,337.250 45.333 C 337.126 45.012,337.025 44.862,337.025 45.000 M349.369 46.942 C 349.266 47.277,349.248 47.483,349.329 47.401 C 349.492 47.234,349.746 46.333,349.629 46.333 C 349.589 46.333,349.472 46.607,349.369 46.942 M318.335 47.208 C 318.338 47.690,319.119 49.698,319.210 49.460 C 319.264 49.321,319.248 49.142,319.176 49.062 C 318.959 48.822,318.499 47.303,318.596 47.146 C 318.646 47.066,318.607 47.000,318.510 47.000 C 318.413 47.000,318.334 47.094,318.335 47.208 M31.336 49.302 C 31.334 49.421,31.264 49.477,31.178 49.424 C 31.093 49.371,30.976 49.404,30.918 49.497 C 30.854 49.601,31.058 49.662,31.448 49.654 C 31.798 49.646,31.971 49.598,31.833 49.545 C 31.696 49.493,31.528 49.368,31.461 49.267 C 31.378 49.142,31.338 49.153,31.336 49.302 M33.083 49.333 C 32.533 49.394,32.316 49.457,32.600 49.472 C 32.884 49.487,33.690 49.549,34.392 49.608 C 35.283 49.683,35.667 49.660,35.667 49.530 C 35.667 49.427,35.554 49.387,35.417 49.440 C 35.271 49.496,35.166 49.442,35.164 49.309 C 35.163 49.173,35.113 49.149,35.039 49.250 C 34.972 49.342,34.692 49.438,34.417 49.463 C 34.034 49.499,33.975 49.470,34.167 49.341 C 34.304 49.248,34.342 49.183,34.250 49.197 C 34.158 49.211,33.633 49.272,33.083 49.333 M227.333 70.891 L 227.417 92.583 227.459 71.146 L 227.501 49.709 228.355 49.596 C 228.824 49.534,229.930 49.519,230.813 49.563 C 231.695 49.607,232.192 49.604,231.917 49.556 C 231.643 49.509,231.364 49.384,231.299 49.278 C 231.211 49.135,231.128 49.139,230.974 49.293 C 230.860 49.407,230.688 49.499,230.592 49.497 C 230.495 49.496,230.529 49.421,230.667 49.331 C 230.851 49.210,230.785 49.187,230.417 49.242 C 229.138 49.434,227.781 49.484,227.529 49.349 C 227.269 49.210,227.256 50.659,227.333 70.891 M232.792 49.618 C 232.998 49.657,233.335 49.657,233.542 49.618 C 233.748 49.578,233.579 49.545,233.167 49.545 C 232.754 49.545,232.585 49.578,232.792 49.618 M42.667 50.644 C 43.073 50.886,43.774 51.061,43.583 50.874 C 43.492 50.783,43.192 50.661,42.917 50.603 C 42.590 50.533,42.503 50.547,42.667 50.644 M347.615 52.458 C 347.415 52.811,346.981 54.360,347.036 54.526 C 347.071 54.630,347.256 54.180,347.447 53.525 C 347.761 52.450,347.815 52.107,347.615 52.458 M339.339 52.925 C 339.342 53.012,339.458 53.271,339.596 53.500 L 339.847 53.917 339.738 53.500 C 339.624 53.065,339.329 52.639,339.339 52.925 M163.333 53.851 C 163.333 54.330,163.370 54.686,163.415 54.641 C 163.563 54.493,163.610 53.151,163.470 53.065 C 163.395 53.018,163.333 53.372,163.333 53.851 M50.258 58.375 C 50.417 58.904,50.595 59.056,50.595 58.664 C 50.595 58.482,50.532 58.333,50.454 58.333 C 50.377 58.333,50.360 58.258,50.417 58.167 C 50.473 58.075,50.435 58.000,50.332 58.000 C 50.215 58.000,50.187 58.141,50.258 58.375 M341.226 59.020 C 341.246 59.146,341.357 59.400,341.473 59.583 C 341.668 59.894,341.675 59.889,341.573 59.500 C 341.452 59.044,341.167 58.649,341.226 59.020 M162.933 60.125 C 162.871 60.744,162.785 61.550,162.743 61.917 C 162.680 62.467,162.693 62.506,162.815 62.141 C 162.983 61.639,163.242 59.000,163.124 59.000 C 163.081 59.000,162.995 59.506,162.933 60.125 M322.256 59.583 C 322.364 60.099,322.456 60.273,322.560 60.153 C 322.593 60.115,322.514 59.858,322.386 59.583 L 322.152 59.083 322.256 59.583 M50.690 59.667 C 50.690 59.804,50.755 60.067,50.833 60.250 C 50.924 60.460,50.977 60.491,50.977 60.333 C 50.977 60.196,50.912 59.933,50.833 59.750 C 50.743 59.540,50.690 59.509,50.690 59.667 M350.519 60.115 C 350.509 60.316,350.425 60.527,350.333 60.583 C 350.242 60.640,350.167 60.813,350.168 60.968 C 350.168 61.143,350.265 61.065,350.424 60.761 C 350.564 60.491,350.648 60.154,350.609 60.011 C 350.565 59.846,350.532 59.885,350.519 60.115 M181.885 60.625 C 181.861 61.107,181.887 61.174,181.998 60.917 C 182.182 60.495,182.205 60.000,182.042 60.000 C 181.973 60.001,181.902 60.282,181.885 60.625 M322.756 61.083 C 322.864 61.599,322.956 61.773,323.060 61.653 C 323.093 61.615,323.014 61.358,322.886 61.083 L 322.652 60.583 322.756 61.083 M76.833 65.610 C 78.652 65.732,80.463 65.740,80.391 65.625 C 80.349 65.556,79.362 65.514,78.198 65.530 C 77.035 65.547,76.421 65.583,76.833 65.610 M274.635 65.625 C 276.754 65.674,276.848 65.691,276.748 66.005 C 276.689 66.192,276.721 66.333,276.822 66.333 C 276.920 66.333,277.000 66.146,277.000 65.917 L 277.000 65.500 274.708 65.536 L 272.417 65.573 274.635 65.625 M348.226 67.098 C 348.213 67.318,348.269 67.456,348.351 67.406 C 348.532 67.294,348.548 66.882,348.375 66.776 C 348.306 66.733,348.239 66.878,348.226 67.098 M272.132 67.493 C 272.093 67.762,272.113 67.950,272.177 67.910 C 272.362 67.796,272.482 67.175,272.336 67.085 C 272.264 67.040,272.172 67.224,272.132 67.493 M179.690 67.857 C 179.573 68.045,179.514 68.236,179.558 68.281 C 179.603 68.325,179.727 68.199,179.833 68.000 C 180.085 67.529,179.968 67.412,179.690 67.857 M54.333 68.004 L 52.583 68.110 54.456 68.119 C 55.501 68.124,56.289 68.063,56.238 67.981 C 56.188 67.900,56.133 67.848,56.115 67.866 C 56.098 67.884,55.296 67.946,54.333 68.004 M347.869 68.442 C 347.766 68.777,347.748 68.983,347.829 68.901 C 347.992 68.734,348.246 67.833,348.129 67.833 C 348.089 67.833,347.972 68.107,347.869 68.442 M249.958 68.123 C 250.440 68.157,251.227 68.157,251.708 68.123 C 252.190 68.089,251.796 68.062,250.833 68.062 C 249.871 68.062,249.477 68.089,249.958 68.123 M75.249 69.208 C 75.065 70.239,75.017 70.872,75.132 70.757 C 75.187 70.702,75.245 70.565,75.261 70.454 C 75.544 68.514,75.535 67.611,75.249 69.208 M161.283 70.625 C 161.109 70.934,161.000 71.687,161.141 71.599 C 161.226 71.547,161.328 71.278,161.369 71.002 C 161.442 70.502,161.416 70.388,161.283 70.625 M160.595 73.095 C 160.534 73.339,160.521 73.577,160.567 73.623 C 160.613 73.668,160.701 73.506,160.762 73.262 C 160.823 73.018,160.836 72.780,160.790 72.734 C 160.744 72.689,160.657 72.851,160.595 73.095 M326.511 73.000 C 326.511 73.137,326.625 73.438,326.763 73.667 L 327.014 74.083 326.903 73.667 C 326.743 73.062,326.510 72.666,326.511 73.000 M270.353 75.111 C 270.342 75.218,270.285 75.443,270.225 75.611 C 270.142 75.848,270.164 75.874,270.324 75.726 C 270.438 75.621,270.495 75.396,270.452 75.226 C 270.408 75.056,270.363 75.004,270.353 75.111 M276.474 76.084 C 276.442 76.588,276.473 77.000,276.542 77.000 C 276.610 77.000,276.667 76.587,276.667 76.083 C 276.667 74.900,276.547 74.900,276.474 76.084 M159.083 77.667 C 158.941 77.942,158.862 78.167,158.908 78.167 C 158.954 78.167,159.108 77.942,159.250 77.667 C 159.392 77.392,159.471 77.167,159.425 77.167 C 159.379 77.167,159.226 77.392,159.083 77.667 M174.705 77.500 C 174.591 77.683,174.555 77.833,174.625 77.833 C 174.696 77.833,174.847 77.683,174.961 77.500 C 175.076 77.317,175.112 77.167,175.042 77.167 C 174.971 77.167,174.820 77.317,174.705 77.500 M269.367 77.950 C 269.120 78.754,269.239 78.873,269.500 78.083 C 269.610 77.750,269.667 77.445,269.628 77.406 C 269.588 77.366,269.471 77.611,269.367 77.950 M173.410 79.372 C 173.315 79.580,173.141 79.729,173.023 79.704 C 172.901 79.678,172.859 79.739,172.925 79.846 C 173.068 80.078,173.737 79.460,173.644 79.181 C 173.609 79.078,173.504 79.164,173.410 79.372 M79.819 79.375 C 79.711 79.687,79.730 80.500,79.846 80.500 C 79.931 80.500,80.000 80.237,80.000 79.917 C 80.000 79.451,79.898 79.146,79.819 79.375 M79.656 81.125 C 79.614 82.330,79.651 83.540,79.734 83.623 C 79.789 83.678,79.833 83.072,79.833 82.278 C 79.833 81.080,79.691 80.152,79.656 81.125 M157.347 81.308 C 157.075 81.817,157.131 81.958,157.434 81.526 C 157.581 81.317,157.662 81.106,157.614 81.058 C 157.566 81.011,157.446 81.123,157.347 81.308 M276.154 82.542 C 276.147 83.298,276.110 84.085,276.072 84.292 C 276.034 84.498,276.077 84.667,276.168 84.667 C 276.267 84.667,276.333 83.965,276.333 82.917 C 276.333 81.954,276.296 81.167,276.250 81.167 C 276.204 81.167,276.161 81.785,276.154 82.542 M155.164 84.708 C 154.867 85.156,154.861 85.186,155.132 84.882 C 155.311 84.680,155.493 84.548,155.535 84.590 C 155.577 84.632,155.611 84.554,155.611 84.417 C 155.611 84.068,155.571 84.094,155.164 84.708 M79.552 85.250 C 79.553 85.800,79.584 86.005,79.621 85.705 C 79.658 85.406,79.657 84.956,79.619 84.705 C 79.581 84.455,79.551 84.700,79.552 85.250 M265.250 85.628 C 265.158 85.695,264.973 85.900,264.838 86.083 C 264.657 86.329,264.712 86.311,265.047 86.013 C 265.455 85.649,265.579 85.495,265.458 85.503 C 265.435 85.504,265.342 85.560,265.250 85.628 M67.493 86.958 L 66.750 87.750 67.510 87.038 C 67.928 86.646,68.334 86.384,68.412 86.455 C 68.490 86.525,68.499 86.490,68.434 86.375 C 68.275 86.099,68.335 86.061,67.493 86.958 M79.548 87.083 C 79.549 87.542,79.581 87.709,79.620 87.456 C 79.658 87.203,79.657 86.828,79.617 86.623 C 79.578 86.418,79.546 86.625,79.548 87.083 M263.822 87.127 C 263.279 87.718,263.277 87.725,263.776 87.275 C 264.065 87.014,264.347 86.808,264.401 86.817 C 264.517 86.836,264.558 86.669,264.461 86.572 C 264.424 86.535,264.137 86.785,263.822 87.127 M65.143 88.843 C 64.771 89.167,64.769 89.176,65.116 89.009 C 65.317 88.911,65.528 88.757,65.584 88.666 C 65.748 88.401,65.568 88.473,65.143 88.843 M162.574 89.411 C 162.396 89.546,162.325 89.656,162.417 89.656 C 162.508 89.656,162.729 89.546,162.907 89.411 C 163.085 89.277,163.155 89.167,163.064 89.167 C 162.972 89.167,162.751 89.277,162.574 89.411 M275.879 90.333 C 275.879 90.746,275.911 90.915,275.951 90.708 C 275.991 90.502,275.991 90.165,275.951 89.958 C 275.911 89.752,275.879 89.921,275.879 90.333 M79.301 90.760 C 79.262 91.087,79.292 91.391,79.366 91.437 C 79.440 91.482,79.500 91.215,79.500 90.843 C 79.500 90.008,79.393 89.964,79.301 90.760 M60.625 90.948 C 60.268 91.041,60.239 91.278,60.583 91.278 C 60.721 91.278,60.833 91.221,60.833 91.151 C 60.833 91.081,60.965 90.990,61.125 90.948 C 61.313 90.899,61.328 90.872,61.167 90.872 C 61.029 90.872,60.785 90.906,60.625 90.948 M145.250 91.000 L 144.917 91.143 145.250 91.152 C 145.433 91.157,145.696 91.089,145.833 91.000 C 146.165 90.786,145.748 90.786,145.250 91.000 M144.000 91.333 C 143.665 91.441,143.649 91.468,143.917 91.472 C 144.100 91.474,144.400 91.412,144.583 91.333 C 145.008 91.151,144.570 91.151,144.000 91.333 M399.896 94.333 C 399.896 95.388,399.923 95.819,399.956 95.292 C 399.990 94.765,399.990 93.902,399.956 93.375 C 399.923 92.848,399.896 93.279,399.896 94.333 M353.407 94.417 L 353.417 96.250 376.500 96.251 L 399.583 96.252 376.547 96.209 L 353.511 96.165 353.455 94.374 L 353.398 92.583 353.407 94.417 M194.892 94.417 C 194.892 95.242,194.920 95.600,194.955 95.213 C 194.990 94.827,194.990 94.152,194.956 93.713 C 194.922 93.275,194.893 93.592,194.892 94.417 M333.055 93.570 C 333.116 93.730,333.167 93.929,333.167 94.014 C 333.167 94.098,333.235 94.167,333.318 94.167 C 333.512 94.167,333.349 93.529,333.118 93.387 C 333.008 93.319,332.985 93.387,333.055 93.570 M79.217 94.333 C 79.217 94.837,79.248 95.044,79.286 94.792 C 79.324 94.540,79.324 94.127,79.286 93.875 C 79.248 93.623,79.217 93.829,79.217 94.333 M152.500 93.839 C 152.500 93.927,152.331 94.009,152.125 94.019 C 151.896 94.031,151.852 94.066,152.010 94.109 C 152.420 94.219,153.129 93.918,152.777 93.783 C 152.625 93.725,152.500 93.750,152.500 93.839 M339.576 94.362 C 339.510 94.576,339.371 94.805,339.269 94.872 C 339.140 94.958,339.148 94.996,339.296 94.997 C 339.506 95.000,339.911 94.189,339.770 94.048 C 339.730 94.008,339.643 94.149,339.576 94.362 M144.575 95.516 C 144.297 95.625,144.315 95.645,144.698 95.655 C 144.945 95.661,145.186 95.604,145.233 95.528 C 145.340 95.354,145.004 95.348,144.575 95.516 M339.031 95.916 C 338.926 96.146,338.905 96.333,338.984 96.333 C 339.123 96.333,339.372 95.650,339.270 95.548 C 339.243 95.521,339.135 95.686,339.031 95.916 M19.805 96.292 C 30.744 96.315,48.594 96.315,59.472 96.292 C 70.350 96.268,61.400 96.249,39.583 96.249 C 17.767 96.249,8.866 96.268,19.805 96.292 M101.625 96.292 C 106.965 96.316,115.702 96.316,121.042 96.292 C 126.381 96.267,122.013 96.247,111.333 96.247 C 100.654 96.247,96.285 96.267,101.625 96.292 M215.375 96.292 C 226.444 96.315,244.556 96.315,255.625 96.292 C 266.694 96.268,257.637 96.249,235.500 96.249 C 213.362 96.249,204.306 96.268,215.375 96.292 M295.388 96.292 C 299.863 96.316,307.138 96.316,311.554 96.292 C 315.970 96.267,312.308 96.247,303.417 96.247 C 294.525 96.247,290.912 96.267,295.388 96.292 M335.201 96.290 C 335.816 96.322,336.866 96.322,337.534 96.291 C 338.203 96.259,337.700 96.233,336.417 96.232 C 335.133 96.232,334.586 96.258,335.201 96.290 " stroke="none" fill="#0484ac" fill-rule="evenodd"></path><path id="path2" d="" stroke="none" fill="#088cac" fill-rule="evenodd"></path><path id="path3" d="" stroke="none" fill="#088cac" fill-rule="evenodd"></path><path id="path4" d="" stroke="none" fill="#088cac" fill-rule="evenodd"></path><path id="path5" d="" stroke="none" fill="#088cac" fill-rule="evenodd"></path></g></svg>