<?xml version="1.0" standalone="no"?>
<!DOCTYPE svg PUBLIC "-//W3C//DTD SVG 20010904//EN"
 "http://www.w3.org/TR/2001/REC-SVG-20010904/DTD/svg10.dtd">
<svg version="1.0" xmlns="http://www.w3.org/2000/svg"
 width="500.000000pt" height="500.000000pt" viewBox="0 0 500.000000 500.000000"
 preserveAspectRatio="xMidYMid meet">

<g transform="translate(0.000000,500.000000) scale(0.100000,-0.100000)"
fill="#000000" stroke="none">
<path d="M1825 4993 c-32 -8 -64 -43 -75 -82 -6 -23 -10 -377 -10 -953 l0
-918 -465 0 -465 0 -310 415 c-171 228 -320 421 -333 430 -36 25 -92 19 -129
-14 l-33 -29 0 -709 c0 -770 -1 -749 58 -872 41 -85 150 -197 228 -235 126
-61 107 -59 807 -63 l642 -4 0 -330 0 -329 -825 0 c-601 0 -831 -3 -849 -12
-58 -26 -77 -109 -35 -154 12 -13 39 -28 58 -34 23 -6 340 -10 844 -10 l807 0
0 -482 c0 -289 4 -497 10 -519 20 -71 95 -104 153 -66 469 307 676 450 686
475 6 15 38 137 71 272 34 135 65 262 71 283 l10 37 1067 0 c675 0 1080 4
1103 10 19 6 46 21 58 34 42 45 23 128 -35 154 -18 9 -305 12 -1086 12 -844 0
-1059 3 -1056 13 3 6 40 155 84 329 l78 317 796 4 c869 3 830 1 959 63 115 56
234 207 271 344 16 58 16 202 0 260 -37 137 -156 288 -271 344 -128 62 -94 59
-931 63 l-767 4 -15 52 c-8 29 -24 88 -36 132 -46 169 -352 1222 -366 1262
-15 40 -32 53 -356 268 -293 194 -382 250 -391 244 -1 -1 -11 -3 -22 -6z m358
-449 c122 -81 224 -148 226 -150 2 -2 27 -88 56 -191 58 -208 324 -1128 332
-1149 4 -12 -64 -14 -421 -14 l-426 0 0 825 c0 454 2 825 5 825 3 0 105 -66
228 -146z m-1724 -1379 c129 -172 245 -318 258 -324 17 -8 575 -11 1899 -11
1402 0 1887 -3 1922 -12 99 -24 179 -94 224 -195 32 -71 30 -180 -4 -255 -33
-71 -94 -133 -167 -167 l-56 -26 -749 -3 c-413 -1 -755 -1 -762 2 -9 3 -8 18
4 61 14 51 14 58 -1 91 -32 66 -22 65 -650 62 -599 -3 -586 -2 -617 -52 -7
-12 -15 -54 -18 -94 l-5 -73 -636 3 -636 3 -67 33 c-75 36 -123 88 -160 168
-23 49 -23 52 -26 577 -2 290 1 527 5 526 4 0 113 -141 242 -314z m2337 -1002
c-11 -35 -318 -1272 -351 -1412 -19 -79 -35 -144 -37 -146 -15 -12 -448 -295
-452 -295 -3 0 -6 421 -6 935 l0 935 426 0 c400 0 425 -1 420 -17z"/>
</g>
</svg>
